<svg xmlns="http://www.w3.org/2000/svg" width="1512" height="847" fill="none"><path fill="#545CBF" fill-rule="evenodd" d="M770.937 0 596.16 308.439c-10.796 19.052-4.103 43.249 14.95 54.045l334.867 189.752c19.052 10.796 43.433 4.137 52.585-15.758C1083.74 351.32 1036.81 134.103 889.605 0H770.937Zm236.053 0c127.9 160.617 158.85 385.245 66.6 578.968-9.42 19.771-2.88 43.947 16.17 54.743l280.29 158.827c19.05 10.796 43.25 4.103 54.05-14.95l87.51-154.444V398.497C1394.38 296.268 1328.17 150.532 1323.69 0h-316.7Zm402.72 0c3.49 99.45 38.91 196.287 101.9 274.811V0h-101.9Z" clip-rule="evenodd"/></svg>