<svg width="390" height="844" viewBox="0 0 390 844" fill="none" xmlns="http://www.w3.org/2000/svg">
<path fill-rule="evenodd" clip-rule="evenodd" d="M89.0997 0L18.0964 125.278C13.7105 133.017 16.4296 142.845 24.1697 147.23L160.21 224.301C167.95 228.686 177.855 225.981 181.573 217.901C216.178 142.695 197.109 54.4685 137.309 0H89.0997ZM184.997 0C236.956 65.2378 249.53 156.474 212.053 235.159C208.228 243.189 210.882 253.009 218.622 257.394L332.491 321.904C340.231 326.289 350.061 323.57 354.447 315.832L390 253.102V161.857C342.375 120.335 315.477 61.1415 313.657 0H184.997ZM348.602 0C350.021 40.3935 364.408 79.7256 390 111.619L390 0H348.602Z" fill="#234B7A"/>
</svg>
