<svg xmlns="http://www.w3.org/2000/svg" width="390" height="844" fill="none"><path fill="#545CBF" fill-rule="evenodd" d="M89.1 0 18.096 125.278c-4.386 7.739-1.666 17.567 6.074 21.952l136.04 77.071c7.74 4.385 17.645 1.68 21.363-6.4C216.178 142.695 197.109 54.468 137.309 0h-48.21Zm95.897 0c51.959 65.238 64.533 156.474 27.056 235.159-3.825 8.03-1.171 17.85 6.569 22.235l113.869 64.51c7.74 4.385 17.57 1.666 21.956-6.072L390 253.102v-91.245C342.375 120.335 315.477 61.142 313.657 0h-128.66Zm163.605 0c1.419 40.394 15.806 79.726 41.398 111.619V0h-41.398Z" clip-rule="evenodd"/></svg>