<svg xmlns="http://www.w3.org/2000/svg" width="267" height="31" fill="none"><path fill="#5D4DD4" d="M0 8a8 8 0 0 1 8-8h23.297v31H8a8 8 0 0 1-8-8V8Z"/><path fill="#473A62" d="M11.972 11.06c.98 0 1.721.388 2.222 1.163.5.771.75 1.859.75 3.262 0 1.411-.25 2.506-.75 3.286-.5.78-1.241 1.17-2.222 1.17-.984 0-1.727-.39-2.227-1.17C9.248 17.99 9 16.896 9 15.485c0-1.403.248-2.49.745-3.262.5-.775 1.243-1.163 2.227-1.163Zm0 1.206c-.463 0-.814.248-1.052.745-.234.492-.35 1.317-.35 2.474 0 .816.038 1.452.116 1.907l2.265-4.664a.934.934 0 0 0-.406-.357c-.16-.07-.351-.105-.573-.105Zm1.397 3.219c0-.653-.024-1.186-.074-1.6l-2.203 4.523a.885.885 0 0 0 .376.252c.147.05.316.074.504.074.468 0 .817-.246 1.046-.739.234-.492.351-1.329.351-2.51ZM22.297 18.506v1.25h-5.311v-1.25h2.061v-5.624l-1.815 1.126-.695-1.126 2.67-1.637h1.434v7.261h1.656Z"/><path fill="#0E1116" d="M31.297 0h227.268a8 8 0 0 1 8 8v15a8 8 0 0 1-8 8H31.297V0Z"/><path fill="#AE95EF" d="M50.626 18.279c.287 0 .556-.054.806-.16.25-.107.494-.243.732-.407l.739 1.04a3.598 3.598 0 0 1-1.04.597 3.61 3.61 0 0 1-1.305.234c-.685 0-1.272-.141-1.76-.424a2.823 2.823 0 0 1-1.114-1.194c-.258-.513-.387-1.108-.387-1.785 0-.669.13-1.266.394-1.79a3.027 3.027 0 0 1 1.132-1.238c.492-.303 1.079-.455 1.76-.455.468 0 .89.068 1.267.203.382.131.73.328 1.047.59l-.72.998a3.241 3.241 0 0 0-.751-.382 2.393 2.393 0 0 0-.794-.135c-.48 0-.872.174-1.175.523-.3.345-.45.906-.45 1.686 0 .771.154 1.315.462 1.63.308.313.693.469 1.157.469ZM57.436 12.697c.649 0 1.198.142 1.65.425.45.283.793.683 1.027 1.2.238.512.357 1.113.357 1.803 0 1.058-.264 1.9-.794 2.523-.529.623-1.278.935-2.246.935s-1.717-.306-2.246-.917c-.53-.615-.794-1.458-.794-2.53 0-.68.12-1.28.357-1.796a2.759 2.759 0 0 1 1.034-1.206c.455-.291 1.007-.437 1.655-.437Zm0 1.225c-.455 0-.795.178-1.021.535-.222.357-.332.917-.332 1.68 0 .771.11 1.335.332 1.692.221.353.56.53 1.015.53.456 0 .794-.177 1.016-.53.221-.357.332-.925.332-1.704 0-.76-.11-1.315-.332-1.668-.222-.357-.558-.536-1.01-.536ZM62.111 19.398v-6.516h1.416l.117.806c.562-.66 1.251-.991 2.068-.991.582 0 1.027.17 1.335.51.312.337.468.81.468 1.422v4.77H65.89v-4.136c0-.492-.051-.841-.154-1.046-.098-.205-.312-.308-.64-.308-.267 0-.515.084-.745.252-.23.169-.434.374-.615.616v4.621h-1.624ZM71.974 18.383c.382 0 .688-.066.917-.197.234-.131.351-.32.351-.566a.678.678 0 0 0-.117-.4c-.074-.115-.222-.22-.443-.314a7.271 7.271 0 0 0-.997-.326 5.642 5.642 0 0 1-1.102-.394 1.98 1.98 0 0 1-.732-.615c-.172-.25-.258-.566-.258-.948 0-.566.238-1.028.714-1.384.475-.362 1.14-.542 1.993-.542.558 0 1.047.074 1.465.222a4.07 4.07 0 0 1 1.077.541l-.665.99a3.817 3.817 0 0 0-.855-.405 2.95 2.95 0 0 0-.985-.16c-.381 0-.66.055-.837.166a.52.52 0 0 0-.258.461c0 .14.043.259.13.357.09.095.25.187.48.277.233.086.565.19.996.314.423.119.79.256 1.102.412.316.156.56.363.732.622.172.254.258.59.258 1.01 0 .47-.137.86-.412 1.168-.275.308-.638.538-1.09.69a4.662 4.662 0 0 1-1.457.221c-.616 0-1.153-.088-1.613-.264a3.873 3.873 0 0 1-1.17-.684l.844-.947c.254.2.544.367.868.498a2.84 2.84 0 0 0 1.064.197ZM79.585 12.697c.648 0 1.198.142 1.649.425.451.283.794.683 1.028 1.2.238.512.357 1.113.357 1.803 0 1.058-.265 1.9-.794 2.523-.53.623-1.278.935-2.246.935-.969 0-1.717-.306-2.246-.917-.53-.615-.794-1.458-.794-2.53 0-.68.119-1.28.357-1.796a2.758 2.758 0 0 1 1.033-1.206c.456-.291 1.008-.437 1.656-.437Zm0 1.225c-.456 0-.796.178-1.022.535-.221.357-.332.917-.332 1.68 0 .771.11 1.335.332 1.692.222.353.56.53 1.016.53.455 0 .794-.177 1.015-.53.222-.357.332-.925.332-1.704 0-.76-.11-1.315-.332-1.668-.221-.357-.558-.536-1.01-.536ZM87.362 10.278v7.225c0 .283.084.484.252.603.168.12.392.179.67.179.177 0 .347-.019.511-.056.164-.04.32-.09.468-.148l.4 1.108a3.657 3.657 0 0 1-.75.277c-.292.078-.63.117-1.016.117-.71 0-1.247-.203-1.613-.61-.365-.405-.547-.953-.547-1.642v-5.902h-1.95v-1.15h3.575ZM93.027 16.635c.05.612.23 1.053.542 1.323.312.271.691.407 1.138.407.312 0 .606-.05.88-.148.275-.098.546-.236.813-.412l.677.929a3.64 3.64 0 0 1-1.09.615 3.94 3.94 0 0 1-1.384.234c-.706 0-1.3-.146-1.785-.437a2.786 2.786 0 0 1-1.09-1.212c-.245-.517-.368-1.112-.368-1.785 0-.648.119-1.233.357-1.754a2.94 2.94 0 0 1 1.046-1.236c.46-.308 1.011-.462 1.655-.462.894 0 1.604.291 2.13.874.525.582.787 1.389.787 2.418 0 .238-.01.454-.03.646h-4.278Zm1.397-2.794a1.25 1.25 0 0 0-.972.425c-.25.283-.398.726-.443 1.33h2.745c-.009-.55-.122-.98-.339-1.287-.217-.312-.548-.467-.99-.467Z"/><path fill="#fff" d="M100.453 18.31c0-.345.123-.643.369-.893.247-.25.546-.376.899-.376.357 0 .658.126.905.376.246.25.369.548.369.892 0 .349-.123.648-.369.899-.247.25-.548.375-.905.375-.353 0-.652-.125-.899-.375a1.237 1.237 0 0 1-.369-.899Z"/><path fill="#54D373" d="M109.51 10.278v7.225c0 .283.084.484.252.603.168.12.392.179.671.179.176 0 .347-.019.511-.056.164-.04.32-.09.467-.148l.4 1.108a3.655 3.655 0 0 1-.75.277c-.292.078-.63.117-1.016.117-.709 0-1.247-.203-1.612-.61-.365-.405-.548-.953-.548-1.642v-5.902h-1.95v-1.15h3.575ZM116.499 12.697c.648 0 1.198.142 1.649.425.451.283.794.683 1.028 1.2.238.512.357 1.113.357 1.803 0 1.058-.265 1.9-.794 2.523-.529.623-1.278.935-2.246.935s-1.717-.306-2.246-.917c-.53-.615-.794-1.458-.794-2.53 0-.68.119-1.28.357-1.796a2.759 2.759 0 0 1 1.033-1.206c.456-.291 1.008-.437 1.656-.437Zm0 1.225c-.456 0-.796.178-1.022.535-.221.357-.332.917-.332 1.68 0 .771.111 1.335.332 1.692.222.353.56.53 1.016.53.455 0 .794-.177 1.015-.53.222-.357.332-.925.332-1.704 0-.76-.11-1.315-.332-1.668-.221-.357-.558-.536-1.009-.536ZM126.792 11.965l.407 1.267a3.958 3.958 0 0 1-.837.185c-.308.033-.659.05-1.053.05.398.171.7.39.905.658.209.266.314.6.314 1.003 0 .422-.109.8-.326 1.132a2.215 2.215 0 0 1-.917.781c-.394.19-.864.284-1.409.284-.312 0-.589-.031-.831-.093a.502.502 0 0 0-.259.462.42.42 0 0 0 .142.314c.098.09.308.135.628.135h1.107c.48 0 .901.082 1.262.246.365.16.648.38.849.659.205.275.308.588.308.941 0 .657-.285 1.17-.856 1.539-.57.369-1.403.553-2.498.553-.784 0-1.395-.08-1.834-.24-.435-.16-.741-.393-.917-.701-.176-.304-.265-.67-.265-1.102h1.447c0 .21.041.382.123.517.086.14.244.24.474.302.229.066.564.098 1.003.098.652 0 1.099-.078 1.341-.233.242-.152.363-.36.363-.622a.622.622 0 0 0-.295-.548c-.197-.131-.476-.197-.837-.197h-1.077c-.656 0-1.134-.127-1.434-.381-.299-.255-.449-.552-.449-.893 0-.23.061-.449.185-.658.127-.213.307-.394.541-.541-.402-.214-.693-.468-.874-.764-.176-.299-.264-.66-.264-1.083 0-.471.119-.882.357-1.23.237-.35.568-.62.99-.813.423-.193.909-.289 1.459-.289.504.004.933-.027 1.286-.092a4.48 4.48 0 0 0 .941-.271c.275-.115.542-.24.8-.375Zm-2.996 1.821c-.386 0-.682.113-.887.339-.201.225-.301.525-.301.898 0 .386.102.691.308.917.209.226.504.339.886.339.763 0 1.144-.425 1.144-1.274 0-.813-.383-1.219-1.15-1.219Z"/><path fill="#CD62C5" d="M130.563 15.09c0 .74.08 1.396.24 1.97.164.574.425 1.126.781 1.655.357.526.831 1.088 1.422 1.686l-.923.862a12.08 12.08 0 0 1-1.699-1.735 7.108 7.108 0 0 1-1.095-1.988c-.254-.722-.381-1.538-.381-2.45 0-.91.127-1.726.381-2.448a7.108 7.108 0 0 1 1.095-1.988 12.082 12.082 0 0 1 1.699-1.736l.923.862a12.165 12.165 0 0 0-1.391 1.655 6.049 6.049 0 0 0-.794 1.668c-.172.583-.258 1.245-.258 1.988Z"/><path fill="#E1DB74" d="m136.906 13.639-.222-3.36h1.649l-.215 3.36h-1.212Zm2.246 0-.209-3.36h1.655l-.221 3.36h-1.225ZM144.947 10.125v3.489c.271-.308.574-.538.911-.69.34-.151.695-.227 1.064-.227.599 0 1.049.17 1.348.51.304.337.456.81.456 1.422v4.77h-1.625v-4.407c0-.394-.062-.673-.185-.837-.119-.164-.324-.246-.615-.246-.263 0-.509.088-.739.265a2.945 2.945 0 0 0-.615.634v4.59h-1.625v-9.113l1.625-.16ZM152.09 16.635c.049.612.23 1.053.541 1.323.312.271.692.407 1.139.407.312 0 .605-.05.88-.148a3.79 3.79 0 0 0 .812-.412l.677.929a3.65 3.65 0 0 1-1.089.615c-.419.156-.88.234-1.385.234-.705 0-1.3-.146-1.784-.437a2.793 2.793 0 0 1-1.09-1.212c-.246-.517-.369-1.112-.369-1.785 0-.648.119-1.233.357-1.754a2.942 2.942 0 0 1 1.046-1.236c.46-.308 1.012-.462 1.656-.462.894 0 1.604.291 2.129.874.525.582.788 1.389.788 2.418 0 .238-.011.454-.031.646h-4.277Zm1.397-2.794c-.394 0-.718.142-.973.425-.25.283-.397.726-.443 1.33h2.745c-.008-.55-.121-.98-.338-1.287-.218-.312-.548-.467-.991-.467ZM161.19 10.278v7.225c0 .283.084.484.252.603.168.12.392.179.671.179.176 0 .346-.019.51-.056.165-.04.32-.09.468-.148l.4 1.108a3.643 3.643 0 0 1-.751.277 3.94 3.94 0 0 1-1.015.117c-.71 0-1.247-.203-1.612-.61-.365-.405-.548-.953-.548-1.642v-5.902h-1.951v-1.15h3.576ZM168.572 10.278v7.225c0 .283.085.484.253.603.168.12.392.179.67.179.177 0 .347-.019.511-.056.164-.04.32-.09.468-.148l.4 1.108a3.643 3.643 0 0 1-.751.277c-.291.078-.63.117-1.015.117-.71 0-1.247-.203-1.613-.61-.365-.405-.547-.953-.547-1.642v-5.902h-1.951v-1.15h3.575ZM175.561 12.697c.649 0 1.198.142 1.65.425.451.283.793.683 1.027 1.2.238.512.357 1.113.357 1.803 0 1.058-.264 1.9-.794 2.523-.529.623-1.278.935-2.246.935s-1.717-.306-2.246-.917c-.529-.615-.794-1.458-.794-2.53 0-.68.119-1.28.357-1.796a2.761 2.761 0 0 1 1.034-1.206c.455-.291 1.007-.437 1.655-.437Zm0 1.225c-.455 0-.796.178-1.021.535-.222.357-.332.917-.332 1.68 0 .771.11 1.335.332 1.692.221.353.56.53 1.015.53.456 0 .794-.177 1.016-.53.221-.357.332-.925.332-1.704 0-.76-.111-1.315-.332-1.668-.222-.357-.558-.536-1.01-.536ZM192.912 19.398h-1.908l-.659-4.523-.701 4.523h-1.871l-1.04-6.516h1.526l.566 5.507.807-4.683h1.495l.738 4.683.579-5.507h1.465l-.997 6.516ZM197.71 12.697c.648 0 1.198.142 1.649.425.451.283.794.683 1.028 1.2.238.512.357 1.113.357 1.803 0 1.058-.265 1.9-.794 2.523-.529.623-1.278.935-2.246.935-.969 0-1.717-.306-2.247-.917-.529-.615-.793-1.458-.793-2.53 0-.68.119-1.28.357-1.796a2.759 2.759 0 0 1 1.033-1.206c.456-.291 1.008-.437 1.656-.437Zm0 1.225c-.456 0-.796.178-1.022.535-.221.357-.332.917-.332 1.68 0 .771.111 1.335.332 1.692.222.353.56.53 1.016.53.455 0 .793-.177 1.015-.53.222-.357.332-.925.332-1.704 0-.76-.11-1.315-.332-1.668-.222-.357-.558-.536-1.009-.536ZM202.446 19.398v-1.126h.917v-4.27h-.917v-1.12h2.154l.302 1.495c.238-.55.537-.966.898-1.25.361-.282.815-.424 1.36-.424.21 0 .394.017.554.05.16.032.316.075.468.129l-.289 2.541h-1.083V14.15c-.423.037-.788.23-1.096.579-.308.344-.55.8-.726 1.366v2.178h1.298V19.4h-3.84ZM212.869 10.278v7.225c0 .283.084.484.253.603.168.12.391.179.67.179.177 0 .347-.019.511-.056.164-.04.32-.09.468-.148l.4 1.108a3.665 3.665 0 0 1-.751.277c-.291.078-.63.117-1.015.117-.71 0-1.248-.203-1.613-.61-.365-.405-.547-.953-.547-1.642v-5.902h-1.951v-1.15h3.575ZM220.929 10.106l1.625.172v9.12h-1.44l-.099-.769a2.357 2.357 0 0 1-.757.696 2.104 2.104 0 0 1-1.058.258c-.55 0-1.005-.143-1.366-.43-.357-.288-.624-.69-.8-1.207-.173-.52-.259-1.126-.259-1.815 0-.66.103-1.25.308-1.766.209-.521.507-.93.892-1.225.386-.295.845-.443 1.379-.443.636 0 1.161.22 1.575.658v-3.249Zm-1.138 3.803c-.411 0-.735.179-.973.536-.234.352-.351.916-.351 1.692 0 .82.109 1.397.327 1.73.217.331.51.498.88.498.27 0 .508-.08.713-.24.206-.165.386-.368.542-.61V14.55a1.763 1.763 0 0 0-.511-.467 1.162 1.162 0 0 0-.627-.173ZM228.096 10.888l-.196 5.495h-1.342l-.209-5.495h1.747Zm-.867 6.67c.287 0 .527.101.72.302a.965.965 0 0 1 .295.708.992.992 0 0 1-.295.72.967.967 0 0 1-.72.295.973.973 0 0 1-.714-.295.992.992 0 0 1-.295-.72c0-.275.098-.511.295-.708a.963.963 0 0 1 .714-.302ZM232.882 13.639l-.221-3.36h1.649l-.215 3.36h-1.213Zm2.246 0-.209-3.36h1.656l-.222 3.36h-1.225Z"/><path fill="#CD62C5" d="M242.696 15.09c0-.742-.086-1.404-.259-1.987a5.929 5.929 0 0 0-.8-1.668 11.725 11.725 0 0 0-1.384-1.655l.923-.862c.656.554 1.22 1.133 1.692 1.736a6.89 6.89 0 0 1 1.096 1.988c.258.722.387 1.538.387 2.449 0 .91-.129 1.727-.387 2.449a6.89 6.89 0 0 1-1.096 1.988 11.811 11.811 0 0 1-1.692 1.735l-.923-.862c.591-.598 1.064-1.16 1.421-1.686.357-.529.616-1.08.776-1.655.164-.574.246-1.23.246-1.97Z"/><path fill="#fff" d="M249.377 12.888c.337 0 .618.117.843.35.23.234.345.511.345.831 0 .324-.115.603-.345.837-.225.234-.506.35-.843.35-.332 0-.613-.116-.843-.35a1.152 1.152 0 0 1-.345-.837c0-.32.115-.597.345-.83.23-.234.511-.351.843-.351Zm0 4.221c.341 0 .624.113.849.339.226.225.339.504.339.837 0 .2-.035.408-.105.621-.069.21-.174.472-.314.788l-.904 2.061h-1.145l.603-2.498c-.34-.222-.511-.548-.511-.979 0-.328.113-.605.339-.83.23-.226.513-.339.849-.339Z"/></svg>