<svg xmlns="http://www.w3.org/2000/svg" width="52" height="52" fill="none"><path fill="#545CBF" fill-rule="evenodd" d="M52 32.23c0-1.197-.973-2.16-2.167-2.244-14.876-1.06-26.759-12.943-27.819-27.82C21.93.974 20.968 0 19.771 0H2.167C.97 0 0 .97 0 2.167V19.77c0 1.197.973 2.158 2.167 2.243 14.876 1.06 26.759 12.943 27.819 27.82C30.07 51.026 31.033 52 32.229 52h17.604C51.03 52 52 51.03 52 49.833V32.23ZM28.801 0c-1.196 0-2.176.973-2.075 2.166 1.038 12.28 10.827 22.07 23.108 23.108 1.193.1 2.166-.879 2.166-2.075V2.167C52 .97 51.03 0 49.833 0H28.801ZM0 28.801c0-1.196.973-2.176 2.166-2.075 12.28 1.038 22.07 10.827 23.108 23.108.1 1.193-.879 2.166-2.075 2.166H2.167A2.167 2.167 0 0 1 0 49.833V28.801Z" clip-rule="evenodd"/></svg>